<svg xmlns="http://www.w3.org/2000/svg" xmlns:svg="http://www.w3.org/2000/svg" xmlns:xlink="http://www.w3.org/1999/xlink" id="svg2" width="50" height="20" version="1.1" viewBox="0 0 50 20"><defs id="defs4"><linearGradient id="linearGradient4527"><stop id="stop4523" offset="0" stop-color="#00429b" stop-opacity="1"/><stop id="stop4525" offset="1" stop-color="#499aff" stop-opacity="1"/></linearGradient><linearGradient id="linearGradient4519"><stop id="stop4515" offset="0" stop-color="#005cd4" stop-opacity="1"/><stop id="stop4517" offset="1" stop-color="#6fb3ff" stop-opacity="1"/></linearGradient><linearGradient id="linearGradient4521" x1="15" x2="15" y1="1050.362" y2="1034.362" gradientTransform="translate(14.787004,0.11552347)" gradientUnits="userSpaceOnUse" xlink:href="#linearGradient4519"/><linearGradient id="linearGradient4529" x1="19" x2="19" y1="1050.362" y2="1034.362" gradientTransform="translate(14.787004,0.11552347)" gradientUnits="userSpaceOnUse" xlink:href="#linearGradient4527"/><filter id="filter4549" width="1.072" height="1.072" x="-.036" y="-.036" color-interpolation-filters="sRGB"><feGaussianBlur id="feGaussianBlur4551" stdDeviation=".219"/></filter><filter id="filter4580" width="1.396" height="1.04" x="-.198" y="-.02" color-interpolation-filters="sRGB"><feGaussianBlur id="feGaussianBlur4582" stdDeviation=".083"/></filter></defs><metadata id="metadata7"/><g id="layer1" transform="translate(0,-1032.3622)"><g id="g839" opacity=".5"><g id="g4562" transform="translate(-5.1851991,-0.59123127)"><g id="g4556" transform="matrix(1.0109881,0,0,0.96970664,-0.43462179,32.056001)"><path id="rect4140" fill="url(#linearGradient4521)" fill-opacity="1" stroke="url(#linearGradient4529)" stroke-dasharray="none" stroke-miterlimit="4" stroke-opacity="1" stroke-width=".5" d="m 15.787004,1034.4777 h 29 c 4.432,0 8,3.568 8,8 0,4.432 -3.568,8 -8,8 h -29 c -4.432,0 -8.0000005,-3.568 -8.0000005,-8 0,-4.432 3.5680005,-8 8.0000005,-8 z"/><ellipse id="path4142" cx="30.144" cy="1042.701" fill="#00429b" fill-opacity="1" stroke="none" stroke-width="1.216" filter="url(#filter4549)" rx="7.318" ry="7.274" transform="matrix(1.0073647,0,0,1.0073647,14.206039,-7.5823938)"/><circle id="circle4531" cx="44.787" cy="1042.478" r="7" fill="#fff" fill-opacity="1" stroke="none" stroke-width="1.167"/></g></g><rect id="rect4566" width="1" height="10" x="13.336" y="1037.698" fill="#00429b" fill-opacity="1" stroke="none" stroke-dasharray="none" stroke-linejoin="miter" stroke-miterlimit="4" stroke-opacity="1" stroke-width=".354" filter="url(#filter4580)" opacity="1" paint-order="markers stroke fill" ry="0" transform="matrix(1.326194,0,0,1.0142465,-4.6438927,-14.875224)"/><rect id="rect4564" width="1" height="10" x="13" y="1037.362" fill="#fff" fill-opacity="1" stroke="none" stroke-dasharray="none" stroke-linejoin="miter" stroke-miterlimit="4" stroke-opacity="1" stroke-width=".354" opacity="1" paint-order="markers stroke fill" ry="0"/></g></g></svg>