<svg xmlns="http://www.w3.org/2000/svg" xmlns:osb="http://www.openswatchbook.org/uri/2009/osb" xmlns:svg="http://www.w3.org/2000/svg" id="svg11300" width="28" height="4" display="inline" enable-background="new" version="1.0"><defs id="defs3"><linearGradient id="selected_bg_color" osb:paint="solid"><stop id="stop4137" offset="0" stop-color="#5294e2" stop-opacity="1"/></linearGradient></defs><metadata id="metadata4"/><g id="layer1" display="inline" transform="translate(0,-296)"><path id="path823" fill="#000" fill-opacity="1" stroke="none" stroke-dasharray="none" stroke-dashoffset="0" stroke-linecap="round" stroke-linejoin="round" stroke-miterlimit="4" stroke-opacity=".196" stroke-width=".1" d="M 10,298 A 2,2 0 0 1 8.0000025,300 2,2 0 0 1 6,298 2,2 0 0 1 7.9999926,296 2,2 0 0 1 10,297.99999 L 8,298 Z" opacity="1" paint-order="fill markers stroke"/><path id="path833" fill="#000" fill-opacity="1" stroke="none" stroke-dasharray="none" stroke-dashoffset="0" stroke-linecap="round" stroke-linejoin="round" stroke-miterlimit="4" stroke-opacity=".196" stroke-width=".1" d="M 16,298 A 2,2 0 0 1 14.000002,300 2,2 0 0 1 12,298 2,2 0 0 1 13.999993,296 2,2 0 0 1 16,297.99999 L 14,298 Z" opacity="1" paint-order="fill markers stroke"/><path id="path893" fill="#000" fill-opacity="1" stroke="none" stroke-dasharray="none" stroke-dashoffset="0" stroke-linecap="round" stroke-linejoin="round" stroke-miterlimit="4" stroke-opacity=".196" stroke-width=".1" d="M 22,298 A 2,2 0 0 1 20.000002,300 2,2 0 0 1 18,298 2,2 0 0 1 19.999993,296 2,2 0 0 1 22,297.99999 L 20,298 Z" opacity="1" paint-order="fill markers stroke"/></g></svg>