<svg xmlns="http://www.w3.org/2000/svg" xmlns:osb="http://www.openswatchbook.org/uri/2009/osb" xmlns:svg="http://www.w3.org/2000/svg" id="svg11300" width="28" height="4" display="inline" enable-background="new" version="1.0"><defs id="defs3"><linearGradient id="selected_bg_color" osb:paint="solid"><stop id="stop4137" offset="0" stop-color="#5294e2" stop-opacity="1"/></linearGradient></defs><metadata id="metadata4"/><g id="layer1" display="inline" transform="translate(0,-296)"><path id="path823" fill="#000" fill-opacity="1" stroke="none" stroke-dasharray="none" stroke-dashoffset="0" stroke-linecap="round" stroke-linejoin="round" stroke-miterlimit="4" stroke-opacity=".196" stroke-width=".1" d="M 7,298 A 2,2 0 0 1 5.0000025,300 2,2 0 0 1 3,298 2,2 0 0 1 4.9999926,296 2,2 0 0 1 7,297.99999 L 5,298 Z" opacity="1" paint-order="fill markers stroke"/><path id="path833" fill="#000" fill-opacity="1" stroke="none" stroke-dasharray="none" stroke-dashoffset="0" stroke-linecap="round" stroke-linejoin="round" stroke-miterlimit="4" stroke-opacity=".196" stroke-width=".1" d="M 13,298 A 2,2 0 0 1 11.000002,300 2,2 0 0 1 9,298 2,2 0 0 1 10.999993,296 2,2 0 0 1 13,297.99999 L 11,298 Z" opacity="1" paint-order="fill markers stroke"/><path id="path893" fill="#000" fill-opacity="1" stroke="none" stroke-dasharray="none" stroke-dashoffset="0" stroke-linecap="round" stroke-linejoin="round" stroke-miterlimit="4" stroke-opacity=".196" stroke-width=".1" d="M 19,298 A 2,2 0 0 1 17.000002,300 2,2 0 0 1 15,298 2,2 0 0 1 16.999993,296 2,2 0 0 1 19,297.99999 L 17,298 Z" opacity="1" paint-order="fill markers stroke"/><path id="path925" fill="#000" fill-opacity="1" stroke="none" stroke-dasharray="none" stroke-dashoffset="0" stroke-linecap="round" stroke-linejoin="round" stroke-miterlimit="4" stroke-opacity=".196" stroke-width=".1" d="M 25,298 A 2,2 0 0 1 23.000002,300 2,2 0 0 1 21,298 2,2 0 0 1 22.999993,296 2,2 0 0 1 25,297.99999 L 23,298 Z" opacity="1" paint-order="fill markers stroke"/></g></svg>